<?xml version="1.0" standalone="no"?>
<!DOCTYPE svg PUBLIC "-//W3C//DTD SVG 20010904//EN"
 "http://www.w3.org/TR/2001/REC-SVG-20010904/DTD/svg10.dtd">
<svg version="1.0" xmlns="http://www.w3.org/2000/svg"
 width="1600.000000pt" height="1600.000000pt" viewBox="0 0 1600.000000 1600.000000"
 preserveAspectRatio="xMidYMid meet">
<metadata>
Created by potrace 1.11, written by Peter Selinger 2001-2013
</metadata>
<g transform="translate(0.000000,1600.000000) scale(0.100000,-0.100000)"
fill="#000000" stroke="none">
<path d="M4818 15995 c-1 -1 -53 -5 -114 -9 -60 -4 -119 -8 -130 -10 -10 -2
-48 -7 -84 -10 -36 -4 -76 -8 -90 -10 -14 -3 -59 -10 -100 -16 -41 -6 -86 -13
-100 -16 -62 -9 -275 -55 -370 -79 -410 -103 -875 -288 -1228 -489 -35 -20
-68 -36 -73 -36 -5 0 -9 -4 -9 -10 0 -5 -4 -10 -10 -10 -14 0 -216 -128 -350
-222 -337 -237 -689 -558 -955 -873 -117 -138 -185 -227 -288 -375 -48 -69
-90 -129 -95 -135 -36 -44 -187 -311 -282 -500 -122 -241 -191 -407 -270 -640
-41 -120 -102 -325 -115 -382 -2 -10 -16 -70 -30 -133 -15 -63 -28 -124 -30
-135 -3 -23 -11 -67 -25 -140 -9 -46 -12 -72 -25 -167 -3 -18 -7 -60 -11 -93
-3 -33 -7 -71 -9 -83 -27 -163 -27 -767 0 -1002 2 -19 6 -62 10 -95 11 -108
47 -329 71 -440 8 -38 16 -79 18 -90 18 -95 95 -363 151 -525 80 -234 136
-367 251 -600 244 -496 566 -944 959 -1335 88 -88 176 -174 195 -190 280 -243
471 -385 757 -564 46 -28 84 -51 86 -51 2 0 42 -22 88 -48 344 -198 792 -376
1214 -484 66 -16 127 -31 135 -33 8 -2 51 -11 95 -20 44 -9 87 -18 96 -20 9
-2 34 -6 55 -9 22 -3 50 -8 64 -11 14 -3 41 -7 60 -9 19 -2 71 -9 115 -15 210
-27 356 -35 650 -35 233 -1 497 9 527 18 7 3 41 7 76 10 73 6 67 23 48 -154
-35 -306 -39 -695 -12 -965 5 -49 18 -168 21 -195 3 -27 22 -156 31 -205 59
-362 211 -873 350 -1173 13 -29 24 -55 24 -57 0 -8 131 -269 175 -350 144
-264 324 -529 542 -800 181 -224 483 -523 718 -710 55 -44 102 -82 105 -85 11
-12 189 -139 275 -197 379 -252 789 -453 1215 -595 120 -41 312 -97 380 -113
129 -29 415 -85 464 -90 34 -4 63 -8 66 -10 3 -1 36 -6 73 -10 37 -3 77 -8 87
-10 11 -2 61 -7 112 -10 51 -4 113 -8 138 -11 58 -4 511 -4 570 1 25 2 86 6
135 10 50 3 99 8 110 10 11 2 51 7 90 10 38 4 72 8 75 10 3 2 31 6 63 10 32 3
82 10 110 16 29 5 66 12 82 15 293 52 799 207 1043 320 29 13 55 24 58 24 7 0
362 176 384 190 8 5 67 40 130 76 268 156 594 392 804 583 328 298 577 580
809 916 397 573 661 1197 802 1890 24 118 27 135 40 225 12 81 14 94 20 150 3
30 8 71 10 90 23 187 34 619 20 810 -10 146 -16 226 -20 250 -4 28 -13 104
-20 165 -3 22 -7 51 -10 65 -2 14 -7 41 -10 60 -5 33 -29 166 -40 218 -2 13
-6 31 -9 40 -3 9 -7 29 -10 44 -3 15 -17 74 -31 130 -15 57 -28 110 -30 118
-16 75 -160 485 -206 587 -10 23 -19 44 -19 48 0 16 -187 389 -254 505 -104
180 -282 446 -402 600 -54 69 -103 130 -109 136 -5 6 -30 35 -55 64 -206 244
-473 495 -780 733 -162 126 -428 298 -640 415 -73 40 -337 172 -344 172 -3 0
-29 11 -58 25 -29 13 -89 38 -133 55 -44 17 -89 35 -100 40 -116 52 -617 197
-780 226 -11 2 -32 5 -48 8 -15 3 -53 10 -85 15 -31 6 -70 12 -87 15 -16 2
-48 7 -70 11 -358 55 -889 64 -1230 20 -22 -2 -68 -7 -102 -11 l-63 -6 6 59
c3 32 7 69 10 83 18 106 25 711 11 895 -13 159 -22 247 -32 315 -2 14 -7 45
-10 70 -5 40 -26 162 -40 230 -3 14 -8 41 -11 60 -3 19 -10 49 -14 65 -5 17
-11 44 -14 60 -25 159 -187 649 -296 895 -57 128 -214 430 -280 540 -108 179
-330 504 -370 540 -3 3 -21 25 -39 50 -137 177 -468 521 -652 675 -13 11 -49
41 -79 66 -413 346 -963 660 -1497 855 -221 80 -547 171 -748 209 -196 36
-343 56 -591 81 -56 6 -650 14 -656 9z m541 -639 c63 -4 129 -9 145 -11 17 -2
58 -7 91 -10 33 -3 71 -8 85 -10 14 -2 43 -6 65 -10 521 -76 1071 -264 1525
-523 90 -51 131 -75 250 -152 383 -245 783 -616 1084 -1005 82 -106 265 -376
311 -460 15 -27 49 -88 75 -135 343 -620 534 -1382 534 -2130 -1 -108 -13
-384 -19 -423 -2 -12 -6 -46 -9 -76 -4 -30 -11 -84 -17 -120 -6 -36 -13 -79
-16 -96 -17 -103 -7 -94 -128 -130 -116 -35 -336 -110 -370 -125 -11 -5 -56
-25 -100 -43 -44 -18 -96 -40 -115 -48 -56 -23 -379 -185 -450 -225 -258 -147
-538 -342 -765 -533 -147 -123 -172 -147 -345 -321 -302 -304 -543 -616 -770
-995 -95 -160 -264 -504 -338 -690 -46 -115 -147 -412 -177 -521 -2 -6 -52
-19 -112 -28 -59 -10 -115 -20 -123 -21 -14 -3 -100 -13 -175 -21 -266 -28
-678 -21 -965 17 -42 5 -94 12 -115 14 -38 5 -121 19 -175 30 -14 3 -38 8 -55
11 -16 2 -46 9 -65 14 -19 5 -46 11 -60 14 -14 2 -62 14 -107 25 -343 88 -726
241 -1027 410 -60 33 -113 61 -118 61 -4 0 -8 5 -8 10 0 6 -5 10 -11 10 -16 0
-257 160 -383 255 -267 201 -538 459 -751 715 -435 525 -749 1156 -901 1814
-33 143 -60 282 -70 361 -2 17 -6 44 -9 61 -2 17 -7 57 -10 90 -4 32 -8 73
-10 89 -23 194 -24 616 -1 840 2 17 7 64 11 105 4 41 9 84 11 95 2 11 7 40 10
65 6 45 9 63 19 110 2 14 7 41 10 60 9 51 22 110 56 245 17 66 32 125 33 130
10 44 102 323 126 380 5 11 30 72 56 135 98 236 276 563 423 775 486 704 1152
1249 1926 1577 272 116 659 233 895 273 19 3 42 8 50 10 8 2 35 7 60 10 25 3
70 10 100 15 30 5 87 12 125 16 39 3 78 8 88 10 10 2 76 6 145 10 70 3 128 7
129 8 4 4 333 -2 432 -8z m5806 -5720 c63 -7 137 -15 195 -21 63 -7 101 -12
130 -19 14 -3 43 -8 64 -11 72 -10 274 -54 391 -85 439 -116 841 -295 1276
-568 269 -169 605 -456 874 -747 59 -64 260 -314 306 -380 19 -27 37 -52 40
-55 7 -6 158 -242 189 -295 153 -265 283 -550 375 -828 52 -155 127 -429 139
-511 4 -21 8 -41 10 -45 2 -3 7 -28 10 -56 4 -27 9 -57 11 -65 2 -8 6 -31 9
-50 2 -19 9 -69 15 -110 27 -188 35 -324 35 -575 0 -183 -10 -440 -18 -454 -2
-3 -6 -40 -10 -82 -3 -42 -8 -82 -10 -90 -3 -8 -7 -32 -10 -54 -36 -280 -135
-651 -259 -963 -157 -398 -378 -782 -647 -1123 -174 -221 -438 -493 -630 -649
-30 -24 -64 -52 -75 -62 -11 -10 -47 -38 -80 -63 -33 -24 -69 -52 -80 -61 -48
-37 -309 -207 -400 -259 -417 -240 -872 -411 -1344 -505 -147 -29 -187 -36
-264 -45 -23 -3 -51 -7 -62 -9 -11 -2 -54 -7 -95 -10 -41 -4 -97 -9 -125 -13
-77 -9 -542 -10 -636 -2 -234 22 -264 25 -389 45 -727 116 -1402 403 -1985
843 -55 42 -109 83 -120 92 -136 113 -197 169 -355 328 -342 344 -587 680
-805 1106 -81 158 -181 388 -224 515 -12 36 -25 72 -28 80 -39 101 -135 467
-158 605 -3 17 -7 41 -10 55 -2 13 -7 42 -10 65 -3 22 -8 47 -10 55 -2 8 -7
42 -10 75 -3 33 -8 71 -10 85 -20 137 -28 678 -12 850 9 94 26 242 32 280 2
14 7 43 10 65 13 79 47 251 62 310 8 33 17 70 19 82 2 12 20 75 39 141 241
829 731 1586 1385 2142 36 30 67 58 70 61 3 3 59 46 125 96 441 332 918 573
1435 724 118 35 218 61 285 75 11 2 43 8 70 14 28 6 61 12 75 15 14 3 36 7 50
9 14 3 41 7 60 10 19 3 85 12 145 20 61 8 153 18 205 22 52 3 97 8 99 10 6 5
581 -3 636 -10z"/>
<path d="M5248 13485 c-2 -1 -34 -5 -72 -9 -38 -4 -79 -9 -90 -11 -12 -3 -34
-7 -51 -9 -16 -2 -61 -11 -100 -20 -697 -164 -1194 -726 -1440 -1630 -29 -106
-30 -109 -46 -181 -6 -27 -15 -55 -19 -60 -6 -7 -80 -10 -196 -10 l-187 1 -39
-86 c-22 -47 -60 -130 -84 -185 -25 -55 -49 -108 -54 -117 -6 -10 -10 -20 -10
-23 0 -3 114 -5 253 -5 l252 0 0 -175 0 -175 -161 0 -161 0 -74 -162 c-40 -90
-81 -179 -90 -198 -10 -19 -16 -37 -14 -40 2 -3 121 -5 264 -5 224 0 262 -2
265 -15 2 -8 7 -33 11 -55 4 -22 9 -51 11 -65 31 -173 147 -578 200 -699 123
-276 241 -467 389 -630 291 -321 655 -498 1145 -557 129 -15 428 -11 549 7
263 40 526 133 751 265 l58 34 0 361 1 361 -57 -53 c-31 -29 -61 -57 -67 -63
-36 -39 -157 -136 -239 -190 -138 -92 -314 -161 -466 -181 -30 -4 -68 -9 -85
-11 -66 -8 -295 -5 -360 6 -272 44 -450 133 -631 314 -143 144 -246 310 -339
545 -32 83 -96 289 -109 354 -3 12 -12 56 -21 97 -26 127 -36 192 -30 199 4 3
344 6 757 6 l751 0 28 55 c46 89 169 342 169 346 0 2 -391 4 -870 4 l-870 0 0
58 c-1 31 -1 111 -2 177 l0 120 918 3 919 2 40 88 c21 48 60 132 85 187 26 55
49 107 52 115 5 14 -105 15 -984 15 -720 0 -992 3 -995 11 -2 6 8 69 22 140
44 212 96 366 181 530 167 327 385 542 658 649 47 18 86 32 86 30 0 -2 21 3
47 11 47 14 171 28 248 28 185 -1 400 -58 575 -152 71 -38 220 -136 260 -172
14 -12 39 -33 55 -47 17 -14 49 -44 72 -66 l42 -40 83 129 c46 71 124 191 174
268 l92 140 -107 68 c-128 82 -371 204 -502 252 -228 84 -455 125 -686 124
-84 0 -153 -1 -155 -3z"/>
<path d="M10669 8313 c-1 -5 -3 -107 -4 -228 -1 -121 -3 -225 -4 -231 0 -7
-17 -12 -36 -12 -91 0 -213 -26 -393 -83 -264 -84 -523 -251 -671 -433 -99
-122 -185 -246 -216 -313 -20 -43 -52 -109 -70 -148 -68 -142 -94 -282 -96
-515 -2 -202 18 -338 71 -495 16 -47 27 -85 25 -85 -9 0 56 -133 87 -178 94
-137 340 -313 548 -392 47 -18 94 -36 105 -40 66 -27 237 -79 410 -124 77 -21
149 -41 160 -45 20 -8 20 -16 20 -942 -1 -594 -4 -933 -10 -932 -6 1 -47 11
-92 22 -372 95 -646 295 -764 557 -17 38 -35 78 -40 89 -23 51 -42 172 -48
300 l-6 140 -285 0 c-157 1 -291 -1 -298 -3 -33 -11 21 -349 88 -554 52 -159
146 -352 210 -431 5 -7 33 -41 62 -77 100 -125 217 -237 353 -338 38 -28 111
-70 205 -118 63 -31 300 -118 300 -109 0 3 10 1 23 -4 13 -5 40 -12 60 -15 20
-3 56 -10 79 -15 24 -5 74 -12 113 -16 38 -4 72 -8 75 -10 3 -2 5 -130 5 -284
l0 -281 187 0 188 0 0 285 0 285 63 1 c65 2 70 2 152 13 126 17 367 87 465
136 327 160 569 387 699 655 91 187 115 247 140 346 30 121 36 192 36 389 -1
253 -21 340 -131 568 -100 208 -142 263 -315 408 -181 153 -432 269 -901 416
l-168 53 0 873 0 872 28 -6 c404 -96 643 -330 747 -733 l21 -85 285 -1 c156 0
290 1 296 3 15 5 14 10 -34 177 -171 593 -471 955 -942 1132 -110 41 -306 85
-388 86 -10 0 -13 55 -13 239 l0 238 -190 0 c-104 0 -191 -3 -191 -7z m-64
-1898 c0 -582 -3 -825 -10 -825 -19 0 -307 124 -367 158 -32 17 -82 46 -112
62 -98 55 -200 176 -242 286 -47 125 -63 225 -59 364 2 69 6 135 9 146 2 12 7
37 10 55 18 116 82 236 170 324 101 100 176 152 287 195 65 26 206 56 269 59
l45 1 0 -825z m570 -1615 c66 -26 145 -55 175 -65 76 -25 118 -47 249 -132
142 -92 212 -162 241 -240 81 -213 82 -496 3 -747 -44 -141 -83 -196 -210
-297 -112 -89 -294 -168 -447 -195 -17 -3 -56 -11 -87 -19 -31 -8 -64 -15 -73
-15 -15 0 -16 79 -16 886 l0 885 23 -7 c12 -3 76 -28 142 -54z"/>
<path d="M11880 15004 l-903 -905 59 -62 c32 -34 440 -443 905 -910 l845 -848
210 210 c115 115 217 218 227 229 18 20 12 27 -497 536 -284 284 -516 518
-516 520 0 7 1600 0 1638 -7 18 -4 59 -11 90 -17 31 -6 70 -14 85 -16 134 -24
397 -145 547 -252 121 -86 286 -251 373 -372 111 -157 205 -362 251 -552 38
-154 39 -171 42 -1163 3 -539 5 -1009 7 -1045 l2 -64 308 -1 c175 0 311 4 315
9 7 12 6 1983 -2 2071 -6 71 -15 143 -22 180 -3 11 -7 36 -10 55 -3 19 -18 85
-34 145 -223 847 -922 1490 -1778 1635 -180 30 -205 31 -1034 32 -428 0 -778
2 -778 5 0 2 232 236 515 520 441 441 514 517 503 530 -16 19 -439 443 -442
443 -2 0 -409 -408 -906 -906z"/>
<path d="M3 4778 c2 -585 6 -1079 10 -1098 7 -35 13 -76 23 -140 32 -212 164
-554 296 -766 270 -437 699 -778 1187 -943 99 -34 270 -77 336 -86 22 -3 49
-7 61 -9 78 -16 293 -20 976 -21 l778 0 -521 -521 -521 -521 227 -226 c125
-125 228 -227 230 -227 5 0 1614 1611 1718 1720 l88 92 -67 71 c-148 156
-1730 1737 -1738 1737 -5 0 -109 -101 -233 -224 l-224 -225 521 -521 521 -521
-818 4 c-450 2 -831 6 -848 9 -16 4 -46 9 -65 13 -194 34 -405 119 -577 230
-281 183 -496 444 -616 752 -51 127 -76 228 -103 398 -3 22 -7 499 -8 1060
l-2 1020 -318 3 -317 2 4 -1062z"/>
</g>
</svg>
